<mxfile host="65bd71144e">
    <diagram id="pLVbdytqGveE6dHU4_2u" name="第 1 页">
        <mxGraphModel dx="355" dy="205" grid="1" gridSize="10" guides="1" tooltips="1" connect="1" arrows="1" fold="1" page="1" pageScale="1" pageWidth="827" pageHeight="1169" math="0" shadow="0">
            <root>
                <mxCell id="0"/>
                <mxCell id="1" parent="0"/>
                <mxCell id="2" value="客户端" style="rounded=1;whiteSpace=wrap;html=1;" vertex="1" parent="1">
                    <mxGeometry x="170" y="60" width="120" height="60" as="geometry"/>
                </mxCell>
                <mxCell id="6" value="" style="line;strokeWidth=2;direction=south;html=1;" vertex="1" parent="1">
                    <mxGeometry x="225" y="120" width="10" height="280" as="geometry"/>
                </mxCell>
                <mxCell id="7" value="服务器" style="rounded=1;whiteSpace=wrap;html=1;" vertex="1" parent="1">
                    <mxGeometry x="470" y="60" width="120" height="60" as="geometry"/>
                </mxCell>
                <mxCell id="8" value="" style="line;strokeWidth=2;direction=south;html=1;" vertex="1" parent="1">
                    <mxGeometry x="525" y="120" width="10" height="280" as="geometry"/>
                </mxCell>
                <mxCell id="9" value="" style="endArrow=classic;html=1;exitX=0.086;exitY=0.426;exitDx=0;exitDy=0;exitPerimeter=0;entryX=0.127;entryY=0.541;entryDx=0;entryDy=0;entryPerimeter=0;" edge="1" parent="1" source="6" target="8">
                    <mxGeometry width="50" height="50" relative="1" as="geometry">
                        <mxPoint x="370" y="260" as="sourcePoint"/>
                        <mxPoint x="420" y="210" as="targetPoint"/>
                    </mxGeometry>
                </mxCell>
                <mxCell id="10" value="SYN ,seq=x" style="text;html=1;strokeColor=none;fillColor=none;align=center;verticalAlign=middle;whiteSpace=wrap;rounded=0;" vertex="1" parent="1">
                    <mxGeometry x="320" y="140" width="90" height="10" as="geometry"/>
                </mxCell>
                <mxCell id="11" value="" style="endArrow=classic;html=1;exitX=0.127;exitY=0.471;exitDx=0;exitDy=0;exitPerimeter=0;entryX=0.25;entryY=0.5;entryDx=0;entryDy=0;entryPerimeter=0;" edge="1" parent="1" source="8" target="6">
                    <mxGeometry width="50" height="50" relative="1" as="geometry">
                        <mxPoint x="400" y="250" as="sourcePoint"/>
                        <mxPoint x="450" y="200" as="targetPoint"/>
                    </mxGeometry>
                </mxCell>
                <mxCell id="12" value="" style="endArrow=classic;html=1;exitX=0.25;exitY=0.5;exitDx=0;exitDy=0;exitPerimeter=0;entryX=0.374;entryY=0.537;entryDx=0;entryDy=0;entryPerimeter=0;" edge="1" parent="1" source="6" target="8">
                    <mxGeometry width="50" height="50" relative="1" as="geometry">
                        <mxPoint x="240.74" y="154.08000000000004" as="sourcePoint"/>
                        <mxPoint x="539.59" y="165.56" as="targetPoint"/>
                    </mxGeometry>
                </mxCell>
                <mxCell id="13" value="SYN , ack = x+1,seq=y" style="text;html=1;strokeColor=none;fillColor=none;align=center;verticalAlign=middle;whiteSpace=wrap;rounded=0;" vertex="1" parent="1">
                    <mxGeometry x="324" y="170" width="136" height="10" as="geometry"/>
                </mxCell>
                <mxCell id="15" value="SYN ,ack=y+1" style="text;html=1;strokeColor=none;fillColor=none;align=center;verticalAlign=middle;whiteSpace=wrap;rounded=0;" vertex="1" parent="1">
                    <mxGeometry x="324" y="200" width="90" height="10" as="geometry"/>
                </mxCell>
                <mxCell id="19" value="LISTEN" style="ellipse;whiteSpace=wrap;html=1;fillStyle=auto;fillColor=#CC0000;" vertex="1" parent="1">
                    <mxGeometry x="530" y="120" width="60" height="30" as="geometry"/>
                </mxCell>
                <mxCell id="20" value="CLOSED" style="ellipse;whiteSpace=wrap;html=1;fillStyle=auto;fillColor=#66FFB3;" vertex="1" parent="1">
                    <mxGeometry x="300" y="80" width="60" height="30" as="geometry"/>
                </mxCell>
                <mxCell id="21" value="" style="ellipse;whiteSpace=wrap;html=1;fillStyle=auto;fillColor=none;" vertex="1" parent="1">
                    <mxGeometry x="390" y="50" width="100" height="50" as="geometry"/>
                </mxCell>
                <mxCell id="22" value="&lt;font style=&quot;font-size: 10px;&quot;&gt;SYN_SENT&lt;/font&gt;" style="ellipse;whiteSpace=wrap;html=1;fillStyle=auto;fillColor=#66FFB3;" vertex="1" parent="1">
                    <mxGeometry x="170" y="150" width="60" height="30" as="geometry"/>
                </mxCell>
                <mxCell id="23" value="&lt;span style=&quot;font-size: 10px;&quot;&gt;established&lt;/span&gt;" style="ellipse;whiteSpace=wrap;html=1;fillStyle=auto;fillColor=#66FFB3;" vertex="1" parent="1">
                    <mxGeometry x="170" y="200" width="60" height="30" as="geometry"/>
                </mxCell>
                <mxCell id="24" value="SYN_RECD" style="ellipse;whiteSpace=wrap;html=1;fillStyle=auto;fillColor=#CC0000;" vertex="1" parent="1">
                    <mxGeometry x="530" y="180" width="60" height="30" as="geometry"/>
                </mxCell>
                <mxCell id="25" value="" style="endArrow=none;html=1;fontSize=10;exitX=0.129;exitY=0.355;exitDx=0;exitDy=0;exitPerimeter=0;" edge="1" parent="1" source="8">
                    <mxGeometry width="50" height="50" relative="1" as="geometry">
                        <mxPoint x="550" y="160" as="sourcePoint"/>
                        <mxPoint x="650" y="156" as="targetPoint"/>
                    </mxGeometry>
                </mxCell>
                <mxCell id="26" value="" style="whiteSpace=wrap;html=1;aspect=fixed;fillStyle=auto;fontSize=10;fillColor=none;" vertex="1" parent="1">
                    <mxGeometry x="580" y="160" width="10" height="10" as="geometry"/>
                </mxCell>
                <mxCell id="27" value="半连接队列" style="text;html=1;strokeColor=none;fillColor=none;align=center;verticalAlign=middle;whiteSpace=wrap;rounded=0;fillStyle=auto;fontSize=10;" vertex="1" parent="1">
                    <mxGeometry x="600" y="140" width="60" height="10" as="geometry"/>
                </mxCell>
                <mxCell id="28" value="" style="endArrow=none;html=1;fontSize=10;exitX=0.378;exitY=0.55;exitDx=0;exitDy=0;exitPerimeter=0;" edge="1" parent="1" source="8">
                    <mxGeometry width="50" height="50" relative="1" as="geometry">
                        <mxPoint x="534.9999999999999" y="230.11999999999995" as="sourcePoint"/>
                        <mxPoint x="650" y="226" as="targetPoint"/>
                    </mxGeometry>
                </mxCell>
                <mxCell id="29" value="全连接队列" style="text;html=1;strokeColor=none;fillColor=none;align=center;verticalAlign=middle;whiteSpace=wrap;rounded=0;fillStyle=auto;fontSize=10;" vertex="1" parent="1">
                    <mxGeometry x="600" y="210" width="60" height="10" as="geometry"/>
                </mxCell>
                <mxCell id="30" value="" style="whiteSpace=wrap;html=1;aspect=fixed;fillStyle=auto;fontSize=10;fillColor=none;" vertex="1" parent="1">
                    <mxGeometry x="610" y="160" width="10" height="10" as="geometry"/>
                </mxCell>
                <mxCell id="31" value="" style="whiteSpace=wrap;html=1;aspect=fixed;fillStyle=auto;fontSize=10;fillColor=none;" vertex="1" parent="1">
                    <mxGeometry x="550" y="160" width="10" height="10" as="geometry"/>
                </mxCell>
                <mxCell id="32" value="" style="whiteSpace=wrap;html=1;aspect=fixed;fillStyle=auto;fontSize=10;fillColor=none;" vertex="1" parent="1">
                    <mxGeometry x="610" y="230" width="10" height="10" as="geometry"/>
                </mxCell>
                <mxCell id="33" value="" style="whiteSpace=wrap;html=1;aspect=fixed;fillStyle=auto;fontSize=10;fillColor=none;" vertex="1" parent="1">
                    <mxGeometry x="580" y="230" width="10" height="10" as="geometry"/>
                </mxCell>
                <mxCell id="34" value="" style="whiteSpace=wrap;html=1;aspect=fixed;fillStyle=auto;fontSize=10;fillColor=none;" vertex="1" parent="1">
                    <mxGeometry x="550" y="230" width="10" height="10" as="geometry"/>
                </mxCell>
            </root>
        </mxGraphModel>
    </diagram>
</mxfile>